<?xml version="1.0" encoding="UTF-8" standalone="no"?>
<!DOCTYPE svg PUBLIC "-//W3C//DTD SVG 1.1//EN" "http://www.w3.org/Graphics/SVG/1.1/DTD/svg11.dtd">
<svg version="1.1" xmlns="http://www.w3.org/2000/svg" xmlns:xlink="http://www.w3.org/1999/xlink" preserveAspectRatio="xMidYMid meet" viewBox="0 0 640 640" width="640" height="640"><defs><path d="M529.1 20.85C539.3 20.85 547.57 29.12 547.57 39.33C547.57 123.8 547.57 358.76 547.57 443.23C547.57 453.44 539.3 461.71 529.1 461.71C444.62 461.71 209.67 461.71 125.19 461.71C114.99 461.71 106.72 453.44 106.72 443.23C106.72 358.76 106.72 123.8 106.72 39.33C106.72 29.12 114.99 20.85 125.19 20.85C209.67 20.85 444.62 20.85 529.1 20.85Z" id="b24mzYAMBL"></path><path d="M378.97 285.69C378.97 343.08 330.98 389.66 271.88 389.66C212.78 389.66 164.8 343.08 164.8 285.69C164.8 228.31 212.78 181.72 271.88 181.72C330.98 181.72 378.97 228.31 378.97 285.69Z" id="a6BLtAQlRd"></path><path d="M280.67 177.92L285.17 178.37L289.62 178.98L294.01 179.77L298.33 180.71L302.6 181.82L306.79 183.09L310.91 184.51L314.96 186.09L318.92 187.81L322.8 189.67L326.6 191.67L330.31 193.81L333.92 196.09L337.43 198.49L340.84 201.02L344.15 203.67L347.35 206.44L350.43 209.33L353.41 212.33L356.26 215.44L358.99 218.66L361.59 221.97L364.06 225.39L366.4 228.89L368.61 232.5L370.67 236.18L372.59 239.96L374.35 243.81L375.97 247.74L377.44 251.75L378.74 255.82L379.88 259.97L380.86 264.17L381.67 268.44L382.3 272.76L382.76 277.14L383.03 281.56L383.13 286.03L383.03 290.5L382.76 294.93L382.3 299.3L381.67 303.63L380.86 307.89L379.88 312.1L378.74 316.24L377.44 320.32L375.97 324.32L374.35 328.25L372.59 332.11L370.67 335.88L368.61 339.57L366.4 343.17L364.06 346.68L361.59 350.09L358.99 353.41L356.26 356.62L353.41 359.73L350.43 362.73L347.35 365.62L344.15 368.39L340.84 371.04L337.43 373.57L333.92 375.98L330.31 378.25L326.6 380.39L322.8 382.39L318.92 384.26L314.96 385.98L310.91 387.55L306.79 388.97L302.6 390.24L298.33 391.35L294.01 392.3L289.62 393.08L285.17 393.7L280.67 394.14L276.11 394.41L271.51 394.5L266.91 394.41L262.36 394.14L257.85 393.7L253.41 393.08L249.02 392.3L244.69 391.35L240.43 390.24L236.23 388.97L232.11 387.55L228.07 385.98L224.1 384.26L220.22 382.39L216.42 380.39L212.72 378.25L209.11 375.98L205.59 373.57L202.18 371.04L198.87 368.39L195.67 365.62L192.59 362.73L189.62 359.73L186.76 356.62L184.03 353.41L181.43 350.09L178.96 346.68L176.62 343.17L174.42 339.57L172.35 335.88L170.44 332.11L168.67 328.25L167.05 324.32L165.59 320.32L164.28 316.24L163.14 312.1L162.16 307.89L161.36 303.63L160.72 299.3L160.27 294.93L159.99 290.5L159.9 286.03L159.99 281.56L160.27 277.14L160.72 272.76L161.36 268.44L162.16 264.17L163.14 259.97L164.28 255.82L165.59 251.75L167.05 247.74L168.67 243.81L170.44 239.96L172.35 236.18L174.42 232.5L176.62 228.89L178.96 225.39L181.43 221.97L184.03 218.66L186.76 215.44L189.62 212.33L192.59 209.33L195.67 206.44L198.87 203.67L202.18 201.02L205.59 198.49L209.11 196.09L212.72 193.81L216.42 191.67L220.22 189.67L224.1 187.81L228.07 186.09L232.11 184.51L236.23 183.09L240.43 181.82L244.69 180.71L249.02 179.77L253.41 178.98L257.85 178.37L262.36 177.92L266.91 177.65L271.51 177.56L276.11 177.65L280.67 177.92ZM263.14 187.19L259.03 187.59L254.96 188.16L250.94 188.87L246.99 189.74L243.09 190.76L239.26 191.92L235.49 193.22L231.79 194.65L228.16 196.23L224.61 197.93L221.14 199.76L217.76 201.72L214.46 203.8L211.24 205.99L208.12 208.31L205.1 210.73L202.17 213.27L199.35 215.91L196.64 218.65L194.03 221.49L191.53 224.43L189.15 227.46L186.89 230.58L184.75 233.79L182.74 237.08L180.85 240.46L179.1 243.91L177.48 247.43L176 251.02L174.67 254.69L173.47 258.41L172.43 262.2L171.54 266.05L170.8 269.95L170.22 273.9L169.8 277.9L169.55 281.94L169.46 286.03L169.55 290.12L169.8 294.17L170.22 298.17L170.8 302.12L171.54 306.02L172.43 309.86L173.47 313.65L174.67 317.38L176 321.04L177.48 324.63L179.1 328.16L180.85 331.61L182.74 334.98L184.75 338.27L186.89 341.48L189.15 344.6L191.53 347.63L194.03 350.57L196.64 353.41L199.35 356.16L202.17 358.8L205.1 361.33L208.12 363.76L211.24 366.07L214.46 368.27L217.76 370.35L221.14 372.3L224.61 374.13L228.16 375.84L231.79 377.41L235.49 378.85L239.26 380.15L243.09 381.31L246.99 382.32L250.94 383.19L254.96 383.91L259.03 384.47L263.14 384.88L267.3 385.12L271.51 385.2L275.72 385.12L279.88 384.88L284 384.47L288.06 383.91L292.08 383.19L296.03 382.32L299.93 381.31L303.77 380.15L307.53 378.85L311.23 377.41L314.86 375.84L318.41 374.13L321.88 372.3L325.27 370.35L328.57 368.27L331.78 366.07L334.9 363.76L337.92 361.33L340.85 358.8L343.67 356.16L346.39 353.41L348.99 350.57L351.49 347.63L353.87 344.6L356.13 341.48L358.27 338.27L360.28 334.98L362.17 331.61L363.92 328.16L365.54 324.63L367.02 321.04L368.36 317.38L369.55 313.65L370.59 309.86L371.49 306.02L372.22 302.12L372.8 298.17L373.22 294.17L373.47 290.12L373.56 286.03L373.47 281.94L373.22 277.9L372.8 273.9L372.22 269.95L371.49 266.05L370.59 262.2L369.55 258.41L368.36 254.69L367.02 251.02L365.54 247.43L363.92 243.91L362.17 240.46L360.28 237.08L358.27 233.79L356.13 230.58L353.87 227.46L351.49 224.43L348.99 221.49L346.39 218.65L343.67 215.91L340.85 213.27L337.92 210.73L334.9 208.31L331.78 205.99L328.57 203.8L325.27 201.72L321.88 199.76L318.41 197.93L314.86 196.23L311.23 194.65L307.53 193.22L303.77 191.92L299.93 190.76L296.03 189.74L292.08 188.87L288.06 188.16L284 187.59L279.88 187.19L275.72 186.94L271.51 186.86L267.3 186.94L263.14 187.19Z" id="fcEoy3f1X"></path><path d="M312.72 328.84L297.13 346.52L273.21 352.75L248.26 346.52L224.34 324.68L312.72 328.84Z" id="a3yodc6viR"></path><path d="M323.04 323.44L322.06 325.05L321.05 326.63L320.02 328.18L318.96 329.7L317.88 331.18L316.78 332.63L315.65 334.04L314.5 335.42L313.33 336.77L312.13 338.08L310.91 339.35L309.68 340.58L308.42 341.78L307.14 342.93L305.84 344.05L304.52 345.12L303.19 346.16L301.83 347.15L300.46 348.11L299.07 349.01L297.66 349.88L296.24 350.7L294.8 351.48L293.34 352.21L291.87 352.89L290.38 353.53L288.88 354.12L287.36 354.66L285.83 355.16L284.29 355.6L282.73 356L281.16 356.34L279.58 356.64L277.99 356.88L276.39 357.07L274.77 357.2L273.15 357.28L271.51 357.31L270.41 357.29L269.3 357.22L268.18 357.1L267.04 356.94L265.89 356.73L264.73 356.48L263.56 356.17L262.38 355.82L261.18 355.43L259.97 354.99L258.75 354.5L257.52 353.96L256.28 353.38L255.02 352.76L253.75 352.08L252.47 351.36L251.18 350.59L249.87 349.78L248.56 348.92L247.23 348.01L245.88 347.06L244.53 346.06L243.17 345.02L241.79 343.92L240.4 342.78L239 341.6L237.58 340.37L236.16 339.09L234.72 337.76L233.27 336.39L231.8 334.98L230.33 333.51L228.84 332L227.34 330.44L225.83 328.84L224.31 327.19L222.77 325.49L221.23 323.75L219.67 321.96L218.1 320.12L324.93 320.12L324 321.8L323.04 323.44ZM235.9 330.51L236.79 331.57L237.7 332.6L238.64 333.61L239.61 334.59L240.59 335.54L241.61 336.46L242.64 337.35L243.7 338.21L244.78 339.03L245.88 339.83L247 340.59L248.14 341.32L249.3 342.01L250.48 342.67L251.68 343.29L252.9 343.88L254.13 344.43L255.38 344.95L256.65 345.43L257.93 345.87L259.23 346.27L260.54 346.63L261.87 346.95L263.21 347.23L264.56 347.46L265.93 347.66L267.31 347.81L268.7 347.93L270.1 347.99L271.51 348.01L272.92 347.99L274.32 347.93L275.71 347.81L277.09 347.66L278.46 347.46L279.81 347.23L281.15 346.95L282.48 346.63L283.79 346.27L285.09 345.87L286.37 345.43L287.64 344.95L288.89 344.43L290.13 343.88L291.34 343.29L292.54 342.67L293.72 342.01L294.88 341.32L296.02 340.59L297.14 339.83L298.24 339.03L299.32 338.21L300.38 337.35L301.42 336.46L302.43 335.54L303.42 334.59L304.38 333.61L305.32 332.6L306.23 331.57L307.12 330.51L307.99 329.42L235.04 329.42L235.9 330.51Z" id="a1BlpfnCIG"></path><path d="M280.67 177.92L285.17 178.37L289.62 178.98L294.01 179.77L298.33 180.71L302.6 181.82L306.79 183.09L310.91 184.51L314.96 186.09L318.92 187.81L322.8 189.67L326.6 191.67L330.31 193.81L333.92 196.09L337.43 198.49L340.84 201.02L344.15 203.67L347.35 206.44L350.43 209.33L353.41 212.33L356.26 215.44L358.99 218.66L361.59 221.97L364.06 225.39L366.4 228.89L368.61 232.5L370.67 236.18L372.59 239.96L374.35 243.81L375.97 247.74L377.44 251.75L378.74 255.82L379.88 259.97L380.86 264.17L381.67 268.44L382.3 272.76L382.76 277.14L383.03 281.56L383.13 286.03L383.03 290.5L382.76 294.93L382.3 299.3L381.67 303.63L380.86 307.89L379.88 312.1L378.74 316.24L377.44 320.32L375.97 324.32L374.35 328.25L372.59 332.11L370.67 335.88L368.61 339.57L366.4 343.17L364.06 346.68L361.59 350.09L358.99 353.41L356.26 356.62L353.41 359.73L350.43 362.73L347.35 365.62L344.15 368.39L340.84 371.04L337.43 373.57L333.92 375.98L330.31 378.25L326.6 380.39L322.8 382.39L318.92 384.26L314.96 385.98L310.91 387.55L306.79 388.97L302.6 390.24L298.33 391.35L294.01 392.3L289.62 393.08L285.17 393.7L280.67 394.14L276.11 394.41L271.51 394.5L266.91 394.41L262.36 394.14L257.85 393.7L253.41 393.08L249.02 392.3L244.69 391.35L240.43 390.24L236.23 388.97L232.11 387.55L228.07 385.98L224.1 384.26L220.22 382.39L216.42 380.39L212.72 378.25L209.11 375.98L205.59 373.57L202.18 371.04L198.87 368.39L195.67 365.62L192.59 362.73L189.62 359.73L186.76 356.62L184.03 353.41L181.43 350.09L178.96 346.68L176.62 343.17L174.42 339.57L172.35 335.88L170.44 332.11L168.67 328.25L167.05 324.32L165.59 320.32L164.28 316.24L163.14 312.1L162.16 307.89L161.36 303.63L160.72 299.3L160.27 294.93L159.99 290.5L159.9 286.03L159.99 281.56L160.27 277.14L160.72 272.76L161.36 268.44L162.16 264.17L163.14 259.97L164.28 255.82L165.59 251.75L167.05 247.74L168.67 243.81L170.44 239.96L172.35 236.18L174.42 232.5L176.62 228.89L178.96 225.39L181.43 221.97L184.03 218.66L186.76 215.44L189.62 212.33L192.59 209.33L195.67 206.44L198.87 203.67L202.18 201.02L205.59 198.49L209.11 196.09L212.72 193.81L216.42 191.67L220.22 189.67L224.1 187.81L228.07 186.09L232.11 184.51L236.23 183.09L240.43 181.82L244.69 180.71L249.02 179.77L253.41 178.98L257.85 178.37L262.36 177.92L266.91 177.65L271.51 177.56L276.11 177.65L280.67 177.92ZM263.14 187.19L259.03 187.59L254.96 188.16L250.94 188.87L246.99 189.74L243.09 190.76L239.26 191.92L235.49 193.22L231.79 194.65L228.16 196.23L224.61 197.93L221.14 199.76L217.76 201.72L214.46 203.8L211.24 205.99L208.12 208.31L205.1 210.73L202.17 213.27L199.35 215.91L196.64 218.65L194.03 221.49L191.53 224.43L189.15 227.46L186.89 230.58L184.75 233.79L182.74 237.08L180.85 240.46L179.1 243.91L177.48 247.43L176 251.02L174.67 254.69L173.47 258.41L172.43 262.2L171.54 266.05L170.8 269.95L170.22 273.9L169.8 277.9L169.55 281.94L169.46 286.03L169.55 290.12L169.8 294.17L170.22 298.17L170.8 302.12L171.54 306.02L172.43 309.86L173.47 313.65L174.67 317.38L176 321.04L177.48 324.63L179.1 328.16L180.85 331.61L182.74 334.98L184.75 338.27L186.89 341.48L189.15 344.6L191.53 347.63L194.03 350.57L196.64 353.41L199.35 356.16L202.17 358.8L205.1 361.33L208.12 363.76L211.24 366.07L214.46 368.27L217.76 370.35L221.14 372.3L224.61 374.13L228.16 375.84L231.79 377.41L235.49 378.85L239.26 380.15L243.09 381.31L246.99 382.32L250.94 383.19L254.96 383.91L259.03 384.47L263.14 384.88L267.3 385.12L271.51 385.2L275.72 385.12L279.88 384.88L284 384.47L288.06 383.91L292.08 383.19L296.03 382.32L299.93 381.31L303.77 380.15L307.53 378.85L311.23 377.41L314.86 375.84L318.41 374.13L321.88 372.3L325.27 370.35L328.57 368.27L331.78 366.07L334.9 363.76L337.92 361.33L340.85 358.8L343.67 356.16L346.39 353.41L348.99 350.57L351.49 347.63L353.87 344.6L356.13 341.48L358.27 338.27L360.28 334.98L362.17 331.61L363.92 328.16L365.54 324.63L367.02 321.04L368.36 317.38L369.55 313.65L370.59 309.86L371.49 306.02L372.22 302.12L372.8 298.17L373.22 294.17L373.47 290.12L373.56 286.03L373.47 281.94L373.22 277.9L372.8 273.9L372.22 269.95L371.49 266.05L370.59 262.2L369.55 258.41L368.36 254.69L367.02 251.02L365.54 247.43L363.92 243.91L362.17 240.46L360.28 237.08L358.27 233.79L356.13 230.58L353.87 227.46L351.49 224.43L348.99 221.49L346.39 218.65L343.67 215.91L340.85 213.27L337.92 210.73L334.9 208.31L331.78 205.99L328.57 203.8L325.27 201.72L321.88 199.76L318.41 197.93L314.86 196.23L311.23 194.65L307.53 193.22L303.77 191.92L299.93 190.76L296.03 189.74L292.08 188.87L288.06 188.16L284 187.59L279.88 187.19L275.72 186.94L271.51 186.86L267.3 186.94L263.14 187.19Z" id="e19iXmrh4A"></path><path d="M204.54 264.34C205.18 264.34 210.28 264.34 210.92 264.34C210.92 255.78 220.91 248.84 233.24 248.84C245.57 248.84 255.57 255.78 255.57 264.34C256.2 264.34 261.31 264.34 261.94 264.34C261.94 250.65 249.09 239.55 233.24 239.55C217.39 239.55 204.54 250.65 204.54 264.34Z" id="gIWLUVHSG"></path><path d="M281.08 264.34C281.72 264.34 286.82 264.34 287.46 264.34C287.46 255.78 297.45 248.84 309.78 248.84C322.11 248.84 332.1 255.78 332.1 264.34C332.74 264.34 337.84 264.34 338.48 264.34C338.48 250.65 325.63 239.55 309.78 239.55C293.93 239.55 281.08 250.65 281.08 264.34Z" id="b2sJLrREKl"></path><path d="M444.27 232.11C444.27 232.11 444.27 232.11 444.27 232.11C481.23 267.61 501.76 287.33 505.87 291.28C505.87 291.28 505.87 291.28 505.87 291.28C468.91 326.78 448.38 346.5 444.27 350.45C444.27 350.45 444.27 350.45 444.27 350.45C407.31 314.94 386.78 295.22 382.67 291.28C382.67 291.28 382.67 291.28 382.67 291.28C419.63 255.78 440.16 236.05 444.27 232.11Z" id="b2u91RqZPV"></path><path d="M423.74 267.61C423.74 267.61 423.74 267.61 423.74 267.61C450.84 293.64 465.9 308.11 468.91 311C468.91 311 468.91 311 468.91 311C454.13 325.2 445.91 333.09 444.27 334.67C444.27 334.67 444.27 334.67 444.27 334.67C417.17 308.63 402.11 294.17 399.1 291.28C399.1 291.28 399.1 291.28 399.1 291.28C413.88 277.08 422.09 269.19 423.74 267.61Z" id="afTJeR3ms"></path><path d="M394.99 184.77C394.99 184.77 394.99 184.77 394.99 184.77C424.56 213.18 440.99 228.95 444.27 232.11C444.27 232.11 444.27 232.11 444.27 232.11C439.34 236.84 436.6 239.47 436.06 240C436.06 240 436.06 240 436.06 240C406.49 211.6 390.06 195.82 386.78 192.66C386.78 192.66 386.78 192.66 386.78 192.66C391.7 187.93 394.44 185.3 394.99 184.77Z" id="at1f98buU"></path><path d="M362.14 192.66C362.14 192.66 362.14 192.66 362.14 192.66C399.1 228.16 419.63 247.89 423.74 251.83C423.74 251.83 423.74 251.83 423.74 251.83C418.81 256.57 416.07 259.19 415.52 259.72C415.52 259.72 415.52 259.72 415.52 259.72C378.56 224.22 358.03 204.5 353.92 200.55C353.92 200.55 353.92 200.55 353.92 200.55C358.85 195.82 361.59 193.19 362.14 192.66Z" id="a9lrJ0ept"></path><path d="M302.46 109.38L389.23 109.38L345.84 65.99L302.46 109.38Z" id="dIBhbaOs"></path><path d="M352.04 109.38L352.04 158.97L339.65 158.97L339.65 109.38L352.04 109.38Z" id="h21bSCWVvv"></path><path d="M239.48 262.09C239.48 265.14 236.69 267.61 233.24 267.61C229.8 267.61 227 265.14 227 262.09C227 259.05 229.8 256.57 233.24 256.57C236.69 256.57 239.48 259.05 239.48 262.09Z" id="c6qIUsYprL"></path><path d="M316.02 262.09C316.02 265.14 313.22 267.61 309.78 267.61C306.34 267.61 303.54 265.14 303.54 262.09C303.54 259.05 306.34 256.57 309.78 256.57C313.22 256.57 316.02 259.05 316.02 262.09Z" id="aSUlM8QGf"></path></defs><g><g><g><use xlink:href="#b24mzYAMBL" opacity="1" fill="#0a39b9" fill-opacity="1"></use></g><g><g><use xlink:href="#a6BLtAQlRd" opacity="1" fill="#ffffff" fill-opacity="1"></use></g><g><use xlink:href="#fcEoy3f1X" opacity="1" fill="#000000" fill-opacity="1"></use><g><use xlink:href="#fcEoy3f1X" opacity="1" fill-opacity="0" stroke="#000000" stroke-width="1" stroke-opacity="0"></use></g></g><g><use xlink:href="#a3yodc6viR" opacity="1" fill="#922e2e" fill-opacity="1"></use><g><use xlink:href="#a3yodc6viR" opacity="1" fill-opacity="0" stroke="#000000" stroke-width="1" stroke-opacity="1"></use></g></g><g><use xlink:href="#a1BlpfnCIG" opacity="1" fill="#000000" fill-opacity="1"></use><g><use xlink:href="#a1BlpfnCIG" opacity="1" fill-opacity="0" stroke="#000000" stroke-width="1" stroke-opacity="0"></use></g></g><g><use xlink:href="#e19iXmrh4A" opacity="1" fill="#000000" fill-opacity="1"></use><g><use xlink:href="#e19iXmrh4A" opacity="1" fill-opacity="0" stroke="#000000" stroke-width="1" stroke-opacity="0"></use></g></g><g><use xlink:href="#gIWLUVHSG" opacity="1" fill="#000000" fill-opacity="1"></use><g><use xlink:href="#gIWLUVHSG" opacity="1" fill-opacity="0" stroke="#000000" stroke-width="1" stroke-opacity="0"></use></g></g><g><use xlink:href="#b2sJLrREKl" opacity="1" fill="#000000" fill-opacity="1"></use><g><use xlink:href="#b2sJLrREKl" opacity="1" fill-opacity="0" stroke="#000000" stroke-width="1" stroke-opacity="0"></use></g></g><g><use xlink:href="#b2u91RqZPV" opacity="1" fill="#000000" fill-opacity="1"></use><g><use xlink:href="#b2u91RqZPV" opacity="1" fill-opacity="0" stroke="#000000" stroke-width="1" stroke-opacity="0"></use></g></g><g><use xlink:href="#afTJeR3ms" opacity="1" fill="#ffffff" fill-opacity="1"></use><g><use xlink:href="#afTJeR3ms" opacity="1" fill-opacity="0" stroke="#000000" stroke-width="1" stroke-opacity="0"></use></g></g><g><use xlink:href="#at1f98buU" opacity="1" fill="#000000" fill-opacity="1"></use><g><use xlink:href="#at1f98buU" opacity="1" fill-opacity="0" stroke="#000000" stroke-width="1" stroke-opacity="0"></use></g></g><g><use xlink:href="#a9lrJ0ept" opacity="1" fill="#000000" fill-opacity="1"></use><g><use xlink:href="#a9lrJ0ept" opacity="1" fill-opacity="0" stroke="#000000" stroke-width="1" stroke-opacity="0"></use></g></g><g><use xlink:href="#dIBhbaOs" opacity="1" fill="#000000" fill-opacity="1"></use><g><use xlink:href="#dIBhbaOs" opacity="1" fill-opacity="0" stroke="#000000" stroke-width="1" stroke-opacity="0"></use></g></g><g><use xlink:href="#h21bSCWVvv" opacity="1" fill="#000000" fill-opacity="1"></use><g><use xlink:href="#h21bSCWVvv" opacity="1" fill-opacity="0" stroke="#000000" stroke-width="1" stroke-opacity="0"></use></g></g><g><use xlink:href="#c6qIUsYprL" opacity="1" fill="#09c0ab" fill-opacity="1"></use></g><g><use xlink:href="#aSUlM8QGf" opacity="1" fill="#09c0ab" fill-opacity="1"></use></g></g></g></g></svg>