<svg xmlns="http://www.w3.org/2000/svg" version="1.0" width="230" height="1200">
<metadata>M115x600S3400029x38S3140029x38S1151160x39S2650052x20</metadata>
<g transform="scale(2)"><g transform="translate(29,38)"><g transform="scale(1.029 1)">   <path id="path2824" d="M 17.5,0 C 7.8350169,0 0,7.8350169 0,17.5 0,27.164983 7.8350169,35 17.5,35 27.164983,35 35,27.164983 35,17.5 35,7.8350169 27.164983,0 17.5,0 z m 0,1.5 c 8.836556,0 16,7.163444 16,16 0,8.836556 -7.163444,16 -16,16 -8.836556,0 -16,-7.163444 -16,-16 0,-8.836556 7.163444,-16 16,-16 z" fill="#000000"/>   <path id="path2935" d="m 9.125,23 c 1.916393,3.62971 4.947318,6 8.375,6 3.427682,0 6.458607,-2.37029 8.375,-6 l -16.75,0 z m 2.65625,1.5 11.4375,0 c -1.375919,1.836656 -3.424503,3 -5.71875,3 -2.294247,0 -4.342831,-1.163344 -5.71875,-3 z" fill="#000000"/> </g></g>
<g transform="translate(29,38)"><g transform="scale(1.029 1)">   <path id="path2905" d="M 17.5,0 C 7.8350169,0 0,7.8350169 0,17.5 0,27.164983 7.8350169,35 17.5,35 27.164983,35 35,27.164983 35,17.5 35,7.8350169 27.164983,0 17.5,0 z m 0,1.5 c 8.836556,0 16,7.163444 16,16 0,8.836556 -7.163444,16 -16,16 -8.836556,0 -16,-7.163444 -16,-16 0,-8.836556 7.163444,-16 16,-16 z" fill="#000000"/>   <path id="path2815" d="M 11.5 10 C 9.0147186 10 7 11.790861 7 14 L 8 14 C 8 12.619288 9.5670034 11.5 11.5 11.5 C 13.432997 11.5 15 12.619288 15 14 L 16 14 C 16 11.790861 13.985281 10 11.5 10 z " fill="#000000"/>   <path id="path2826" d="M 23.5,10 C 21.014719,10 19,11.790861 19,14 l 1,0 c 0,-1.380712 1.567003,-2.5 3.5,-2.5 1.932997,0 3.5,1.119288 3.5,2.5 l 1,0 c 0,-2.209139 -2.014719,-4 -4.5,-4 z" fill="#000000"/> </g></g>
<g transform="translate(60,39)"><g transform="scale(0.937 0.9) translate(-5.333 8.667) rotate(315)">   <rect id="base" x="0" y="15" width="15" height="15" fill="#000000"/>   <rect id="fill" x="2" y="17" width="6" height="11" fill="#ffffff"/>   <rect id="index" x="13" y="3" width="2" height="12" fill="#000000"/>   <rect id="middle" x="8" y="0" width="2" height="15" fill="#000000"/> </g></g>
<g transform="translate(52,20)"><g>   <path id="path2818" d="M 7,0 0,7 14,7 7,0 z" fill="#000000"/>   <path id="path2831" d="M 6,7 8,7 8,15 6,15 6,7 z" fill="#000000"/> </g></g>
</g></svg>